<svg xmlns="http://www.w3.org/2000/svg" width="134.453" height="29.656" viewBox="0 0 134.453 29.656">
  <g id="Group_225" data-name="Group 225" transform="translate(0 0)">
    <path id="Path_1" data-name="Path 1" d="M3.731,20.181a3.643,3.643,0,0,1,.82-2.329.522.522,0,0,0-.173-.777,5.928,5.928,0,0,1-3.192-4.227,9.163,9.163,0,0,1,.3-4.183,2.118,2.118,0,0,0,.043-.906A11.04,11.04,0,0,1,1.7,1.5C2.221,0,3.041-.35,4.507.34A9.98,9.98,0,0,1,6.793,1.85a.465.465,0,0,0,.6.086,10.066,10.066,0,0,1,7.98.043.459.459,0,0,0,.517-.086A10.6,10.6,0,0,1,18.051.426,4.6,4.6,0,0,1,19.129.038a1.362,1.362,0,0,1,1.51.69,6.9,6.9,0,0,1,.776,2.416,11.781,11.781,0,0,1-.258,4.917.738.738,0,0,0,.043.431,9.206,9.206,0,0,1,.474,3.753,5.936,5.936,0,0,1-3.278,4.83.505.505,0,0,0-.172.777A3.943,3.943,0,0,1,19,21c0,.129-.086.215.086.345a2.733,2.733,0,0,1,1.208,2.674A5.479,5.479,0,0,1,19.733,26a2.08,2.08,0,0,1-1.941,1.251H17.1a3.061,3.061,0,0,0-1.51.3,2.857,2.857,0,0,1-2.156.129c-.043,0-.086-.043-.13-.043-.474-.518-1.078-.388-1.682-.388h-.906a2.191,2.191,0,0,0-1.121.3,2.6,2.6,0,0,1-2.674-.13.993.993,0,0,0-.6-.172H4.982A2.125,2.125,0,0,1,3.041,26a5.161,5.161,0,0,1-.518-1.812.705.705,0,0,0-.3-.517,4.776,4.776,0,0,1-1.466-6.6c.043-.043.086-.086.086-.129a.347.347,0,0,1,.388-.172c.173.043.216.172.259.345A3.949,3.949,0,0,0,2.7,19.491a3.11,3.11,0,0,0,1.035.69" fill="#2f201c"/>
    <path id="Path_2" data-name="Path 2" d="M1.747,12.461a7.914,7.914,0,0,1,.3-3.494,10.189,10.189,0,0,1,3.71-5.348c.258-.216.3-.388.087-.647A10.278,10.278,0,0,0,4.766,1.721c.172-.173.3-.043.431.043A8.22,8.22,0,0,1,6.577,2.8a.81.81,0,0,0,.82.087,9.689,9.689,0,0,1,5.952-.6,10.6,10.6,0,0,1,1.984.647.533.533,0,0,0,.6-.087,10.362,10.362,0,0,1,1.379-1.035c.173-.129.346-.259.561-.129a13.182,13.182,0,0,0-1.036,1.164c-.3.432-.3.518.13.82a10.225,10.225,0,0,1,4.011,7.5,4,4,0,0,1-.042,1.251,1.755,1.755,0,0,1-1.6.863,3.627,3.627,0,0,1-2.587-.863,25.845,25.845,0,0,1-1.984-1.812,10.188,10.188,0,0,0-1.294-1.078,3.625,3.625,0,0,0-4.314.043A15.149,15.149,0,0,0,7.4,11.124,17.213,17.213,0,0,1,6.1,12.332a3.926,3.926,0,0,1-2.674.949,2.061,2.061,0,0,1-1.681-.82" fill="#eaa548"/>
    <path id="Path_3" data-name="Path 3" d="M1.747,12.461A3.455,3.455,0,0,0,3,13.108,3.562,3.562,0,0,0,6.06,12.2c.777-.647,1.509-1.38,2.242-2.07A5,5,0,0,1,10.33,8.881a3.82,3.82,0,0,1,3.493.82c.906.733,1.726,1.595,2.632,2.415a3.573,3.573,0,0,0,3.235,1.035,2.609,2.609,0,0,0,1.207-.69,3.724,3.724,0,0,1-.13.69,10.66,10.66,0,0,1-.775,1.165,8.059,8.059,0,0,1-2.8,1.811,14.8,14.8,0,0,1-3.839.777A19.7,19.7,0,0,1,7.4,16.6,8.574,8.574,0,0,1,3,14.488a4.968,4.968,0,0,1-1.078-1.423,2.4,2.4,0,0,1-.172-.6" fill="#fff"/>
    <path id="Path_4" data-name="Path 4" d="M1.919,13.108a6.884,6.884,0,0,1,.863,1.035,7.53,7.53,0,0,0,2.027,1.51A13.01,13.01,0,0,0,9.6,16.817a18.971,18.971,0,0,0,6.254-.431,8.333,8.333,0,0,0,4.054-2.2,5.622,5.622,0,0,0,.6-.819c.043-.086.086-.216.259-.216a5.155,5.155,0,0,1-2.416,3.192,11.207,11.207,0,0,1-4.442,1.423,18.616,18.616,0,0,1-7.074-.388,7.636,7.636,0,0,1-3.882-2.2,4.486,4.486,0,0,1-1.035-2.07" fill="#dcdcdc"/>
    <path id="Path_5" data-name="Path 5" d="M13.177,26.349a3.757,3.757,0,0,1-.043-.992V23.2c0-.086.043-.086.086-.043.086.086.043.216.086.345A26.92,26.92,0,0,0,15.765,21a3.374,3.374,0,0,0,.863-1.855c0-.043.043-.13.043-.173.172-.086.3-.129.474-.215.216,0,.216.215.259.345a4.075,4.075,0,0,1,.043,1.768A10.662,10.662,0,0,1,16.5,23.89a9.074,9.074,0,0,1-.949,1.812,1.329,1.329,0,0,1-.3.388.259.259,0,0,1-.172.043,3.254,3.254,0,0,0-1.682.216.2.2,0,0,1-.216,0" fill="#eaa548"/>
    <path id="Path_6" data-name="Path 6" d="M9.51,23.891c0,.82.043,1.639,0,2.459a.276.276,0,0,1-.259,0,3.026,3.026,0,0,0-1.639-.173.339.339,0,0,1-.345-.043,2.518,2.518,0,0,0-.259-.6,16.046,16.046,0,0,1-1.682-4.184,5,5,0,0,1-.086-2.113c.043-.173.086-.389.259-.475.172.087.3.13.474.216a.392.392,0,0,1,.13.3,2.993,2.993,0,0,0,.69,1.553,25.828,25.828,0,0,0,2.372,2.5,1.048,1.048,0,0,1,.345.561" fill="#eaa548"/>
    <path id="Path_7" data-name="Path 7" d="M10.2,25.228V23.244c0-.3-.129-.475-.431-.431a.7.7,0,0,1-.216-.389,7.758,7.758,0,0,0-1.208-2.286,1.021,1.021,0,0,0-.56-.474c-.087-.043-.173-.043-.173-.216.69.087,1.38.259,2.07.3.259,0,.173.13.087.3a1.588,1.588,0,0,0,.388,1.812,1.718,1.718,0,0,0,1.855.345,1.7,1.7,0,0,0,.9-2.114c-.129-.345,0-.345.259-.345.518-.043,1.035-.129,1.6-.215.043.129-.043.172-.086.258a7.113,7.113,0,0,0-1.51,2.8c-.043.086-.043.172-.129.216-.388-.044-.475.043-.475.431,0,.647,0,1.294-.043,1.941a1.823,1.823,0,0,1-2.329.043" fill="#dcdcdc"/>
    <path id="Path_8" data-name="Path 8" d="M7.613,19.491c.819.3,1.12,1.035,1.509,1.725a4.236,4.236,0,0,1,.6,1.6c-.259.13-.216.388-.216.6v.475a38.866,38.866,0,0,1-2.847-3.063,2.9,2.9,0,0,1-.69-1.855c.562.173,1.078.345,1.64.518" fill="#fff"/>
    <path id="Path_9" data-name="Path 9" d="M12.961,22.855a5.153,5.153,0,0,1,.863-2.07,6.258,6.258,0,0,1,.9-1.208c.647-.173,1.338-.345,1.941-.561a1.767,1.767,0,0,1-.345,1.38,12.72,12.72,0,0,1-2.113,2.459,11.28,11.28,0,0,0-.992,1.035c-.13-.215,0-.431-.086-.647a.422.422,0,0,0-.173-.388" fill="#fff"/>
    <path id="Path_10" data-name="Path 10" d="M15.2,26.047a15.111,15.111,0,0,0,2.027-4.788,4.129,4.129,0,0,0-.086-2.5c.043-.044.129-.087.172-.13.518-.259.518-.259.734.259a4.35,4.35,0,0,1,.086,2.674A15.116,15.116,0,0,1,16.2,26c-.086.129-.172.216-.259.345-.3,0-.56,0-.733-.3" fill="#e08532"/>
    <path id="Path_11" data-name="Path 11" d="M5.5,18.758a5.61,5.61,0,0,0,.259,3.753,13.1,13.1,0,0,0,1.553,3.234.229.229,0,0,1-.044.346.442.442,0,0,1-.517.3,8.778,8.778,0,0,1-1.467-2.631,9.28,9.28,0,0,1-.905-3.235,3.411,3.411,0,0,1,.3-1.725c.216-.431.216-.431.6-.172.087.043.13.086.216.129" fill="#e08532"/>
    <path id="Path_12" data-name="Path 12" d="M16.627,26.608a17.867,17.867,0,0,0,2.027-4.443c.086-.258.173-.172.3-.043a2.457,2.457,0,0,1,.6,1.941,4.476,4.476,0,0,1-.474,1.639,1.541,1.541,0,0,1-1.208.906,12.108,12.108,0,0,1-1.251,0" fill="#e08432"/>
    <path id="Path_13" data-name="Path 13" d="M5.37,26.608a1.713,1.713,0,0,1-1.984-1.423A3.212,3.212,0,0,1,3.257,22.9a1.8,1.8,0,0,1,.474-.777c.129-.129.216-.215.259.043a16.89,16.89,0,0,0,1.9,4.227c.086.173.086.216-.13.216Z" fill="#e08432"/>
    <path id="Path_14" data-name="Path 14" d="M20.035,6.077a12.439,12.439,0,0,0-2.2-2.545c-.474-.388-.474-.431-.043-.906a7.169,7.169,0,0,1,1.639-1.38.59.59,0,0,1,.216.345,7.775,7.775,0,0,1,.474,2.459,6.44,6.44,0,0,1,.043,1.294c.087.3.087.56-.129.733" fill="#b8572a"/>
    <path id="Path_15" data-name="Path 15" d="M3.213,1.289a6.435,6.435,0,0,1,1.9,1.682c.086.13.129.216,0,.345A11.549,11.549,0,0,0,2.652,6.077a.44.44,0,0,1-.215-.432A12.5,12.5,0,0,1,2.868,1.85a.672.672,0,0,1,.345-.561" fill="#b8572a"/>
    <path id="Path_16" data-name="Path 16" d="M17.878,1.634a4.108,4.108,0,0,0-1.467.949,1.188,1.188,0,0,1-1.552.3,8.561,8.561,0,0,0-4.529-.647,8.22,8.22,0,0,0-3.192.906c-.129.086-.216.043-.345-.044-.561-.431-1.078-.9-1.682-1.293a.572.572,0,0,0-.345-.13c-.388-.3-.734-.6-1.165-.906a2.334,2.334,0,0,1,1.035.389A12.431,12.431,0,0,1,6.577,2.583a.528.528,0,0,0,.69.129,9.436,9.436,0,0,1,8.066,0,.521.521,0,0,0,.647-.086A9.518,9.518,0,0,1,18.568.858c.13-.044.216-.087.345-.13.043,0,.043,0,.13.043-.432.3-.777.6-1.165.863" fill="#f4cb71"/>
    <path id="Path_17" data-name="Path 17" d="M.754,18.672a2.484,2.484,0,0,1,.216-.69,5.046,5.046,0,0,0,1.25,1.941,4.093,4.093,0,0,0,1.338.906c.345.172.345.345.043.56a2.5,2.5,0,0,0-.777.863.419.419,0,0,1-.388-.173,4.461,4.461,0,0,1-1.6-2.544,1.53,1.53,0,0,1-.086-.863" fill="#e08432"/>
    <path id="Path_18" data-name="Path 18" d="M3.213,1.289A10.507,10.507,0,0,0,2.566,5.6a1.843,1.843,0,0,0,.086.475c-.172.345-.345.69-.56,1.078a1.853,1.853,0,0,1-.173-.949,10.566,10.566,0,0,1,.345-4.184c.043-.172.129-.345.173-.517.215-.6.215-.6.776-.216" fill="#cf722e"/>
    <path id="Path_19" data-name="Path 19" d="M20.035,6.077a11.53,11.53,0,0,0-.259-3.839,8.72,8.72,0,0,1-.3-.992l.043-.043c.475-.3.475-.3.691.216a8.7,8.7,0,0,1,.6,3.148,12.74,12.74,0,0,1-.129,2.243,1.09,1.09,0,0,1-.086.3c-.173-.345-.345-.69-.561-1.035" fill="#cf722e"/>
    <path id="Path_20" data-name="Path 20" d="M10.2,25.228a2.306,2.306,0,0,0,2.243,0c0,.388.043.733.043,1.121,0,.216-.043.259-.216.259h-1.9c-.173,0-.259-.043-.216-.215a10.56,10.56,0,0,0,.043-1.165" fill="#df8432"/>
    <path id="Path_21" data-name="Path 21" d="M.754,18.672a4.6,4.6,0,0,0,2.027,3.58,3.241,3.241,0,0,0-.215.69c-.044.173-.087.216-.216.086a4.117,4.117,0,0,1-1.6-4.356" fill="#dcdcdc"/>
    <path id="Path_22" data-name="Path 22" d="M11.02,21.691a1.012,1.012,0,1,1,.863-1.812,1.138,1.138,0,0,1-.863,1.812" fill="#f3df5a"/>
    <path id="Path_23" data-name="Path 23" d="M5.283,17.809c-.043-.259.043-.3.259-.216a14.723,14.723,0,0,0,4.313.863c.431,0,.474.043.431.561-.043.388-.3.172-.474.215-.043,0-.129-.043-.173-.043.044-.086.087-.086.173-.129a12.064,12.064,0,0,1-4.529-1.251" fill="#a22b2a"/>
    <path id="Path_24" data-name="Path 24" d="M12.961,19.146c-.561.129-.6.086-.6-.431,0-.259.13-.3.345-.3a14.385,14.385,0,0,0,3.321-.518,11.1,11.1,0,0,0,1.122-.345c.129-.043.259-.086.216.129a2,2,0,0,1-.906.561A13.774,13.774,0,0,1,13,19.017c-.043,0-.129-.044-.086.043a.15.15,0,0,0,.043.086" fill="#a22b2a"/>
    <path id="Path_25" data-name="Path 25" d="M7.526,26.047a2.69,2.69,0,0,1,1.984.3c0,.388-.129.69-.517.776a5.277,5.277,0,0,1-1.165,0c0-.172.172-.172.259-.172a4.947,4.947,0,0,1-.475-.475c-.086-.129-.172-.258-.086-.431" fill="#fcfcfa"/>
    <path id="Path_26" data-name="Path 26" d="M13.177,26.349a2.553,2.553,0,0,1,1.941-.3c.172.129.043.216,0,.345a2.463,2.463,0,0,1-.647.69c-.216.173-.474.043-.733.043-.388-.086-.561-.3-.561-.776" fill="#fffcfb"/>
    <path id="Path_27" data-name="Path 27" d="M12.961,19.146c-.173-.043-.474.086-.474-.086,0-.216.3-.087.431-.13a17.455,17.455,0,0,0,3.321-.69c.388-.129.733-.345,1.122-.517.043.215-.13.258-.3.345a10.689,10.689,0,0,1-3.408.992,3.785,3.785,0,0,1-.69.086" fill="#c03433"/>
    <path id="Path_28" data-name="Path 28" d="M5.283,17.809c.129-.086.216,0,.345.086a9.918,9.918,0,0,0,3.839.992,3.266,3.266,0,0,1,.647.087c.086,0,.172,0,.129.129,0,.086-.086.086-.172.086H9.683a10.566,10.566,0,0,1-4.141-1.121c-.13-.086-.259-.13-.259-.259" fill="#c43533"/>
    <path id="Path_29" data-name="Path 29" d="M13.694,27.126c.733.086.992-.518,1.38-.949v-.129h.13a2.575,2.575,0,0,1,.69.345,1.966,1.966,0,0,1-2.2.733" fill="#d9d9d8"/>
    <path id="Path_30" data-name="Path 30" d="M7.526,26.047c.129.431.518.6.776.949-.129.129-.388-.043-.517.129a1.553,1.553,0,0,1-1.079-.733c.173-.086.346-.216.518-.3a.642.642,0,0,0,.3-.043" fill="#d9d9d9"/>
    <path id="Path_31" data-name="Path 31" d="M11.02,21.691c.906-.388,1.035-.647.82-1.855a1.019,1.019,0,0,1-.82,1.855" fill="#f9f8f6"/>
    <path id="Path_32" data-name="Path 32" d="M11.365,19.06c-.216,0-.431.129-.431-.259,0-.345.172-.3.388-.3s.431-.086.431.3-.259.216-.388.259" fill="#c3c3c2"/>
    <path id="Path_33" data-name="Path 33" d="M7.828,27.126a10.529,10.529,0,0,1,1.165,0,2.663,2.663,0,0,1-1.165,0" fill="#d9d9d9"/>
    <path id="Path_34" data-name="Path 34" d="M4.852,9.139A1.391,1.391,0,0,1,6.189,7.716a1.437,1.437,0,0,1,1.553,1.25.85.85,0,0,1-.518.993,2.528,2.528,0,0,1-1.682.215.93.93,0,0,1-.69-1.035" fill="#2f201c"/>
    <path id="Path_35" data-name="Path 35" d="M16.584,10.218a3.366,3.366,0,0,1-.863-.173,1.035,1.035,0,0,1-.69-1.466,1.457,1.457,0,0,1,1.639-.906A1.441,1.441,0,0,1,17.835,9.14c0,.733-.431,1.078-1.251,1.078" fill="#2f201c"/>
    <path id="Path_36" data-name="Path 36" d="M8.475,6.206a.864.864,0,0,1-1.035.82.159.159,0,0,1-.13-.044c-.647-.086-.992-.388-.948-.862a1.19,1.19,0,0,1,1.25-.949,1,1,0,0,1,.863,1.035" fill="#fffffc"/>
    <path id="Path_37" data-name="Path 37" d="M14.212,6.206a.99.99,0,0,1,.906-.992,1.182,1.182,0,0,1,1.207.992.654.654,0,0,1-.3.6,1.518,1.518,0,0,1-1.424.129.846.846,0,0,1-.388-.733" fill="#fffffc"/>
    <path id="Path_38" data-name="Path 38" d="M9.683,10.261a1.951,1.951,0,0,1,1.984-.69,1.153,1.153,0,0,1,.518.129A.993.993,0,0,1,13,10.865a1.443,1.443,0,0,1-.776,1.121c-.3.173-.3.173-.043.475.56.3.862.259,1.251-.216a6.506,6.506,0,0,0,.345-.561.28.28,0,0,1,.431-.129.3.3,0,0,1,.129.431,2.193,2.193,0,0,1-.949,1.122.534.534,0,0,0-.258.345,2.443,2.443,0,0,1-.777,1.509,1.475,1.475,0,0,1-2.156.044,2.674,2.674,0,0,1-.777-1.553.657.657,0,0,0-.259-.432A2.347,2.347,0,0,1,8.3,11.943a.3.3,0,0,1,.129-.431.288.288,0,0,1,.431.172,2.436,2.436,0,0,0,.346.561.854.854,0,0,0,1.337.086c.172-.215,0-.258-.13-.388a1.456,1.456,0,0,1-.733-1.682" fill="#2f201c"/>
    <path id="Path_39" data-name="Path 39" d="M9.683,10.261c-.086.992.474,1.467,1.294,1.812a.776.776,0,0,1-.388.258,1.569,1.569,0,0,1-.906-2.07" fill="#cbcccd"/>
    <path id="Path_40" data-name="Path 40" d="M12.184,12.417a1.536,1.536,0,0,1-.518-.345,1.932,1.932,0,0,0,1.381-1.251.726.726,0,0,1-.13.82,2.156,2.156,0,0,1-.647.6c-.086.044-.172.044-.086.173" fill="#cccece"/>
    <path id="Path_41" data-name="Path 41" d="M6.491,8.19c.259.043.431.129.431.431a.443.443,0,0,1-.431.475.478.478,0,0,1-.474-.475.42.42,0,0,1,.474-.431" fill="#f9f8f8"/>
    <path id="Path_42" data-name="Path 42" d="M16.67,8.708a.425.425,0,0,1-.431.388.478.478,0,0,1-.475-.474.471.471,0,0,1,.432-.475.5.5,0,0,1,.474.561" fill="#f7f7f7"/>
    <path id="Path_43" data-name="Path 43" d="M11.322,10.735a2.39,2.39,0,0,1-.776-.086c-.345-.173-.345-.432-.044-.647a1.978,1.978,0,0,1,1.64.043c.258.172.258.431-.044.561a.952.952,0,0,1-.776.129" fill="#573e39"/>
    <path id="Path_44" data-name="Path 44" d="M12.1,14.229a.841.841,0,0,1-1.553,0,.356.356,0,0,1,.216-.216,1.431,1.431,0,0,1,1.337.216" fill="#e18981"/>
    <path id="Path_45" data-name="Path 45" d="M12.1,14.229a2.14,2.14,0,0,0-1.553,0c-.172-.129-.215-.259.043-.3a2.4,2.4,0,0,1,1.553,0c.259.086.043.216-.043.3" fill="#eaafa7"/>
    <path id="Path_46" data-name="Path 46" d="M86.028,9.312a19.031,19.031,0,0,1,3.838.043,5.046,5.046,0,0,1,3.192,1.509,4.9,4.9,0,0,1,1.165,2.588,14.242,14.242,0,0,1-.561,6.988,6.566,6.566,0,0,1-6.125,4.615,15.283,15.283,0,0,1-3.968-.129,3.692,3.692,0,0,1-.647-.173,1.688,1.688,0,0,1-1.164-1.725c0-1.294.129-2.588.215-3.882.216-3.063.561-6.125.647-9.231,0-.431.086-.517.518-.517a22.485,22.485,0,0,0,2.89-.086m4.356,6.642a5.739,5.739,0,0,0-.259-1.9,1.958,1.958,0,0,0-1.553-1.38,8,8,0,0,0-2.027,0c-.215,0-.3.086-.3.345-.129,2.76-.345,5.564-.56,8.325,0,.258.043.3.258.3h.216a3.325,3.325,0,0,0,3.882-2.587,10.82,10.82,0,0,0,.345-3.106" fill="#459bd2"/>
    <path id="Path_47" data-name="Path 47" d="M86.028,9.312a19.031,19.031,0,0,1,3.838.043,5.046,5.046,0,0,1,3.192,1.509,4.9,4.9,0,0,1,1.165,2.588,14.242,14.242,0,0,1-.561,6.988,6.566,6.566,0,0,1-6.125,4.615,15.283,15.283,0,0,1-3.968-.129,3.692,3.692,0,0,1-.647-.173,1.688,1.688,0,0,1-1.164-1.725c0-1.294.129-2.588.215-3.882.216-3.063.561-6.125.647-9.231,0-.431.086-.517.518-.517A22.485,22.485,0,0,0,86.028,9.312Zm4.356,6.642a5.739,5.739,0,0,0-.259-1.9,1.958,1.958,0,0,0-1.553-1.38,8,8,0,0,0-2.027,0c-.215,0-.3.086-.3.345-.129,2.76-.345,5.564-.56,8.325,0,.258.043.3.258.3h.216a3.325,3.325,0,0,0,3.882-2.587A10.82,10.82,0,0,0,90.384,15.954Z" fill="none" stroke="#459bd2" stroke-linecap="round" stroke-linejoin="round" stroke-width="0.863"/>
    <path id="Path_48" data-name="Path 48" d="M38.926,16.817c.043.086.13.086.216.129a3,3,0,0,1,1.941,2.631,5.592,5.592,0,0,1-.086,1.9,4.107,4.107,0,0,1-2.847,3.063,12.075,12.075,0,0,1-6.427.345A2.022,2.022,0,0,1,29.912,22.6c0-1.553.215-3.106.3-4.659.172-2.631.474-5.262.56-7.893,0-.561.043-.6.6-.6a36.739,36.739,0,0,1,4.874-.129,8.29,8.29,0,0,1,2.674.6,3.319,3.319,0,0,1,2.2,3.321,5.142,5.142,0,0,1-.3,1.811,3.218,3.218,0,0,1-1.9,1.769M35.26,22.3a1.849,1.849,0,0,0,1.984-1.165,2.554,2.554,0,0,0,.043-1.509A1.488,1.488,0,0,0,36.166,18.5a4.494,4.494,0,0,0-1.855,0c-.216.043-.259.129-.259.3-.043.733-.129,1.51-.129,2.243,0,.345-.259.776.086,1.035a2.3,2.3,0,0,0,1.079.216h.172m.3-10.007a6.457,6.457,0,0,0-.906.086c-.129,0-.215.043-.215.216-.044.863-.087,1.725-.13,2.631,0,.129.043.216.173.216a3.879,3.879,0,0,0,1.984,0,1.443,1.443,0,0,0,1.078-1.467,1.425,1.425,0,0,0-1.035-1.509,2.449,2.449,0,0,0-.949-.173" fill="#459bd2"/>
    <path id="Path_49" data-name="Path 49" d="M38.926,16.817c.043.086.13.086.216.129a3,3,0,0,1,1.941,2.631,5.592,5.592,0,0,1-.086,1.9,4.107,4.107,0,0,1-2.847,3.063,12.075,12.075,0,0,1-6.427.345A2.022,2.022,0,0,1,29.912,22.6c0-1.553.215-3.106.3-4.659.172-2.631.474-5.262.56-7.893,0-.561.043-.6.6-.6a36.739,36.739,0,0,1,4.874-.129,8.29,8.29,0,0,1,2.674.6,3.319,3.319,0,0,1,2.2,3.321,5.142,5.142,0,0,1-.3,1.811A3.218,3.218,0,0,1,38.926,16.817ZM35.26,22.3a1.849,1.849,0,0,0,1.984-1.165,2.554,2.554,0,0,0,.043-1.509A1.488,1.488,0,0,0,36.166,18.5a4.494,4.494,0,0,0-1.855,0c-.216.043-.259.129-.259.3-.043.733-.129,1.51-.129,2.243,0,.345-.259.776.086,1.035a2.3,2.3,0,0,0,1.079.216Zm.3-10.007a6.457,6.457,0,0,0-.906.086c-.129,0-.215.043-.215.216-.044.863-.087,1.725-.13,2.631,0,.129.043.216.173.216a3.879,3.879,0,0,0,1.984,0,1.443,1.443,0,0,0,1.078-1.467,1.425,1.425,0,0,0-1.035-1.509A2.449,2.449,0,0,0,35.562,12.288Z" fill="none" stroke="#459bd2" stroke-linecap="round" stroke-linejoin="round" stroke-width="0.863"/>
    <path id="Path_50" data-name="Path 50" d="M116.824,14.272a3.208,3.208,0,0,0,.043-.906c0-.3.129-.474.474-.431.475.043.949,0,1.424.043a1.566,1.566,0,0,1,1.552,1.639,17.616,17.616,0,0,1-.086,3.019c-.129,2.2-.3,4.4-.647,6.6a10.44,10.44,0,0,1-.345,1.6,4.151,4.151,0,0,1-2.372,2.718,8.58,8.58,0,0,1-6.211.172,2.8,2.8,0,0,1-1.165-.733,1.663,1.663,0,0,1-.561-1.812,1.787,1.787,0,0,1,1.553-1.121.846.846,0,0,1,.992.431,2.367,2.367,0,0,0,2.5.949,2.106,2.106,0,0,0,1.811-1.682,6.045,6.045,0,0,0,.259-2.157c-.129,0-.129.087-.172.173a3.459,3.459,0,0,1-3.278,1.553,3.547,3.547,0,0,1-3.623-3.235,8.912,8.912,0,0,1,.733-5.78,4.659,4.659,0,0,1,5.262-2.415,2.306,2.306,0,0,1,1.682,1.337c0,.043.043.086.086.129.044-.086.044-.086.087-.086m-.216,3.666a4.141,4.141,0,0,0-.216-1.38,1.345,1.345,0,0,0-1.294-.949,1.857,1.857,0,0,0-1.854,1.078,5.568,5.568,0,0,0-.432,3.537,1.242,1.242,0,0,0,.949,1.035,2.069,2.069,0,0,0,2.416-1.078,4.642,4.642,0,0,0,.431-2.243" fill="#459bd2"/>
    <path id="Path_51" data-name="Path 51" d="M116.824,14.272a3.208,3.208,0,0,0,.043-.906c0-.3.129-.474.474-.431.475.043.949,0,1.424.043a1.566,1.566,0,0,1,1.552,1.639,17.616,17.616,0,0,1-.086,3.019c-.129,2.2-.3,4.4-.647,6.6a10.44,10.44,0,0,1-.345,1.6,4.151,4.151,0,0,1-2.372,2.718,8.58,8.58,0,0,1-6.211.172,2.8,2.8,0,0,1-1.165-.733,1.663,1.663,0,0,1-.561-1.812,1.787,1.787,0,0,1,1.553-1.121.846.846,0,0,1,.992.431,2.367,2.367,0,0,0,2.5.949,2.106,2.106,0,0,0,1.811-1.682,6.045,6.045,0,0,0,.259-2.157c-.129,0-.129.087-.172.173a3.459,3.459,0,0,1-3.278,1.553,3.547,3.547,0,0,1-3.623-3.235,8.912,8.912,0,0,1,.733-5.78,4.659,4.659,0,0,1,5.262-2.415,2.306,2.306,0,0,1,1.682,1.337c0,.043.043.086.086.129C116.781,14.272,116.781,14.272,116.824,14.272Zm-.216,3.666a4.141,4.141,0,0,0-.216-1.38,1.345,1.345,0,0,0-1.294-.949,1.857,1.857,0,0,0-1.854,1.078,5.568,5.568,0,0,0-.432,3.537,1.242,1.242,0,0,0,.949,1.035,2.069,2.069,0,0,0,2.416-1.078A4.642,4.642,0,0,0,116.608,17.938Z" fill="none" stroke="#459bd2" stroke-linecap="round" stroke-linejoin="round" stroke-width="0.863"/>
    <path id="Path_52" data-name="Path 52" d="M75.33,22.554a3.961,3.961,0,0,1-1.467,1.337,4.336,4.336,0,0,1-3.925-.086,3.241,3.241,0,0,1-1.552-2.761,17.521,17.521,0,0,1,.086-3.364c.086-1.294.216-2.588.3-3.882.043-.647.216-.819.863-.819a9.4,9.4,0,0,1,1.078.043,1.569,1.569,0,0,1,1.639,1.811c0,.949-.13,1.9-.216,2.8a10.958,10.958,0,0,0-.172,2.372,1.381,1.381,0,0,0,2.286,1.035,3.424,3.424,0,0,0,1.121-1.682,12.967,12.967,0,0,0,.475-3.148c.086-.906.129-1.769.215-2.675.043-.474.173-.6.647-.6a5.255,5.255,0,0,1,1.639.13,1.537,1.537,0,0,1,1.251,1.6c0,1.6-.172,3.148-.3,4.744-.086,1.682-.259,3.322-.388,5a4.784,4.784,0,0,1-4.443,4.7,9.705,9.705,0,0,1-4.442-.388,4.336,4.336,0,0,1-1.553-.906,1.488,1.488,0,0,1,.561-2.588,2.141,2.141,0,0,1,.56-.129c.691-.13.734-.13,1.122.474a1.963,1.963,0,0,0,1.725.863,2.221,2.221,0,0,0,2.674-1.855,5.426,5.426,0,0,0,.216-2.027" fill="#459bd2"/>
    <path id="Path_53" data-name="Path 53" d="M75.33,22.554a3.961,3.961,0,0,1-1.467,1.337,4.336,4.336,0,0,1-3.925-.086,3.241,3.241,0,0,1-1.552-2.761,17.521,17.521,0,0,1,.086-3.364c.086-1.294.216-2.588.3-3.882.043-.647.216-.819.863-.819a9.4,9.4,0,0,1,1.078.043,1.569,1.569,0,0,1,1.639,1.811c0,.949-.13,1.9-.216,2.8a10.958,10.958,0,0,0-.172,2.372,1.381,1.381,0,0,0,2.286,1.035,3.424,3.424,0,0,0,1.121-1.682,12.967,12.967,0,0,0,.475-3.148c.086-.906.129-1.769.215-2.675.043-.474.173-.6.647-.6a5.255,5.255,0,0,1,1.639.13,1.537,1.537,0,0,1,1.251,1.6c0,1.6-.172,3.148-.3,4.744-.086,1.682-.259,3.322-.388,5a4.784,4.784,0,0,1-4.443,4.7,9.705,9.705,0,0,1-4.442-.388,4.336,4.336,0,0,1-1.553-.906,1.488,1.488,0,0,1,.561-2.588,2.141,2.141,0,0,1,.56-.129c.691-.13.734-.13,1.122.474a1.963,1.963,0,0,0,1.725.863,2.221,2.221,0,0,0,2.674-1.855A5.426,5.426,0,0,0,75.33,22.554Z" fill="none" stroke="#459bd2" stroke-linecap="round" stroke-linejoin="round" stroke-width="0.863"/>
    <path id="Path_54" data-name="Path 54" d="M59.242,14.53a1.212,1.212,0,0,1,.173-.215,3.4,3.4,0,0,1,3.58-1.553,3.49,3.49,0,0,1,3.192,2.8,9.432,9.432,0,0,1-.475,6.34A5.3,5.3,0,0,1,61.1,25.1a7.922,7.922,0,0,1-2.674-.13,3.816,3.816,0,0,1-3.192-3.58,29.913,29.913,0,0,1,.086-3.925c.173-2.76.475-5.477.561-8.238,0-.431.043-.474.518-.474a9.363,9.363,0,0,1,1.552.043,1.636,1.636,0,0,1,1.51,1.768c0,1.208-.129,2.373-.216,3.58a.583.583,0,0,1,0,.388m-.474,4.745a5.708,5.708,0,0,0,.259,1.941,1.38,1.38,0,0,0,1.509.992,1.722,1.722,0,0,0,1.51-.992,6.337,6.337,0,0,0,.475-4.529,1.309,1.309,0,0,0-1.467-1.078,1.812,1.812,0,0,0-1.768,1.207,6.123,6.123,0,0,0-.518,2.459" fill="#459bd2"/>
    <path id="Path_55" data-name="Path 55" d="M59.242,14.53a1.212,1.212,0,0,1,.173-.215,3.4,3.4,0,0,1,3.58-1.553,3.49,3.49,0,0,1,3.192,2.8,9.432,9.432,0,0,1-.475,6.34A5.3,5.3,0,0,1,61.1,25.1a7.922,7.922,0,0,1-2.674-.13,3.816,3.816,0,0,1-3.192-3.58,29.913,29.913,0,0,1,.086-3.925c.173-2.76.475-5.477.561-8.238,0-.431.043-.474.518-.474a9.363,9.363,0,0,1,1.552.043,1.636,1.636,0,0,1,1.51,1.768c0,1.208-.129,2.373-.216,3.58A.583.583,0,0,1,59.242,14.53Zm-.474,4.745a5.708,5.708,0,0,0,.259,1.941,1.38,1.38,0,0,0,1.509.992,1.722,1.722,0,0,0,1.51-.992,6.337,6.337,0,0,0,.475-4.529,1.309,1.309,0,0,0-1.467-1.078,1.812,1.812,0,0,0-1.768,1.207A6.123,6.123,0,0,0,58.768,19.275Z" fill="none" stroke="#459bd2" stroke-linecap="round" stroke-linejoin="round" stroke-width="0.863"/>
    <path id="Path_56" data-name="Path 56" d="M48.89,23.287a5.007,5.007,0,0,1-.647.69,4.245,4.245,0,0,1-4.572.819,2.588,2.588,0,0,1-1.553-2.717,3.694,3.694,0,0,1,2.675-3.364,11.152,11.152,0,0,1,3.968-.733c.259,0,.388-.087.388-.345a4.537,4.537,0,0,0-.043-1.079.96.96,0,0,0-.82-.819,1.465,1.465,0,0,0-1.941,1.121c-.043.086-.043.173-.086.259-.172.647-.216.69-.863.647-.215,0-.431-.043-.647-.043A1.555,1.555,0,0,1,43.326,15.7a3.114,3.114,0,0,1,1.467-2.114,5.8,5.8,0,0,1,2.544-.733,8.149,8.149,0,0,1,3.063.215,3.232,3.232,0,0,1,2.5,3.149,26.533,26.533,0,0,1-.216,3.192c-.043.518-.13,1.078-.13,1.6a.982.982,0,0,0,.863,1.121c.388.087.431.259.431.6A2.488,2.488,0,0,1,52,25.142a2.994,2.994,0,0,1-1.51,0A1.943,1.943,0,0,1,49.063,23.8a1.439,1.439,0,0,1-.173-.517M48.5,19.75a4.767,4.767,0,0,0-1.553.345,1.364,1.364,0,0,0-.819.647.91.91,0,0,0-.043,1.035.875.875,0,0,0,.862.432,1.771,1.771,0,0,0,1.208-.475,2.552,2.552,0,0,0,.776-1.6c.043-.388,0-.388-.431-.388" fill="#459bd2"/>
    <path id="Path_57" data-name="Path 57" d="M48.89,23.287a5.007,5.007,0,0,1-.647.69,4.245,4.245,0,0,1-4.572.819,2.588,2.588,0,0,1-1.553-2.717,3.694,3.694,0,0,1,2.675-3.364,11.152,11.152,0,0,1,3.968-.733c.259,0,.388-.087.388-.345a4.537,4.537,0,0,0-.043-1.079.96.96,0,0,0-.82-.819,1.465,1.465,0,0,0-1.941,1.121c-.043.086-.043.173-.086.259-.172.647-.216.69-.863.647-.215,0-.431-.043-.647-.043A1.555,1.555,0,0,1,43.326,15.7a3.114,3.114,0,0,1,1.467-2.114,5.8,5.8,0,0,1,2.544-.733,8.149,8.149,0,0,1,3.063.215,3.232,3.232,0,0,1,2.5,3.149,26.533,26.533,0,0,1-.216,3.192c-.043.518-.13,1.078-.13,1.6a.982.982,0,0,0,.863,1.121c.388.087.431.259.431.6A2.488,2.488,0,0,1,52,25.142a2.994,2.994,0,0,1-1.51,0A1.943,1.943,0,0,1,49.063,23.8,1.439,1.439,0,0,1,48.89,23.287ZM48.5,19.75a4.767,4.767,0,0,0-1.553.345,1.364,1.364,0,0,0-.819.647.91.91,0,0,0-.043,1.035.875.875,0,0,0,.862.432,1.771,1.771,0,0,0,1.208-.475,2.552,2.552,0,0,0,.776-1.6C48.976,19.75,48.933,19.75,48.5,19.75Z" fill="none" stroke="#459bd2" stroke-linecap="round" stroke-linejoin="round" stroke-width="0.863"/>
    <path id="Path_58" data-name="Path 58" d="M95.732,19.75a8.495,8.495,0,0,1,.561-3.364,5.406,5.406,0,0,1,4.357-3.58,8.591,8.591,0,0,1,3.321,0,3.955,3.955,0,0,1,3.364,3.666,9.126,9.126,0,0,1-.69,5.133,5.651,5.651,0,0,1-4.831,3.407,8.152,8.152,0,0,1-2.5-.086,4.118,4.118,0,0,1-3.45-3.537,10.527,10.527,0,0,1-.13-1.639m7.98-1.639a5.246,5.246,0,0,0-.173-1.467,1.476,1.476,0,0,0-1.38-1.035,2.105,2.105,0,0,0-2.243,1.381,6.537,6.537,0,0,0-.431,2.588,4.173,4.173,0,0,0,.345,1.768,1.464,1.464,0,0,0,1.38.863,2.055,2.055,0,0,0,1.9-1.338,7.084,7.084,0,0,0,.6-2.76" fill="#459bd2"/>
    <path id="Path_59" data-name="Path 59" d="M95.732,19.75a8.495,8.495,0,0,1,.561-3.364,5.406,5.406,0,0,1,4.357-3.58,8.591,8.591,0,0,1,3.321,0,3.955,3.955,0,0,1,3.364,3.666,9.126,9.126,0,0,1-.69,5.133,5.651,5.651,0,0,1-4.831,3.407,8.152,8.152,0,0,1-2.5-.086,4.118,4.118,0,0,1-3.45-3.537A10.527,10.527,0,0,1,95.732,19.75Zm7.98-1.639a5.246,5.246,0,0,0-.173-1.467,1.476,1.476,0,0,0-1.38-1.035,2.105,2.105,0,0,0-2.243,1.381,6.537,6.537,0,0,0-.431,2.588,4.173,4.173,0,0,0,.345,1.768,1.464,1.464,0,0,0,1.38.863,2.055,2.055,0,0,0,1.9-1.338A7.084,7.084,0,0,0,103.712,18.111Z" fill="none" stroke="#459bd2" stroke-linecap="round" stroke-linejoin="round" stroke-width="0.863"/>
    <path id="Path_60" data-name="Path 60" d="M128.383,12.719a6.333,6.333,0,0,1,2.07.259,2.935,2.935,0,0,1,2.114,3.321,3.484,3.484,0,0,1-2.071,2.933,10.239,10.239,0,0,1-3.8.949c-.259,0-.475.043-.733.043-.173,0-.259.043-.216.259a2.011,2.011,0,0,0,2.545,1.9,1.784,1.784,0,0,0,1.035-.733c.345-.475.517-.518,1.078-.346a1.556,1.556,0,0,1,.69,2.632,3.94,3.94,0,0,1-2.2,1.078,7.142,7.142,0,0,1-3.925-.216,4.139,4.139,0,0,1-2.847-3.192,8.607,8.607,0,0,1,1.078-6.254,5.657,5.657,0,0,1,4.96-2.631h.216m-.647,2.89a1.456,1.456,0,0,0-1.294.776,5.3,5.3,0,0,0-.6,1.812c-.043.216.043.216.216.216.259-.044.474-.044.733-.087a2.881,2.881,0,0,0,1.725-.776,1.184,1.184,0,0,0,.216-1.337,1.052,1.052,0,0,0-.992-.6" fill="#459bd2"/>
    <path id="Path_61" data-name="Path 61" d="M128.383,12.719a6.333,6.333,0,0,1,2.07.259,2.935,2.935,0,0,1,2.114,3.321,3.484,3.484,0,0,1-2.071,2.933,10.239,10.239,0,0,1-3.8.949c-.259,0-.475.043-.733.043-.173,0-.259.043-.216.259a2.011,2.011,0,0,0,2.545,1.9,1.784,1.784,0,0,0,1.035-.733c.345-.475.517-.518,1.078-.346a1.556,1.556,0,0,1,.69,2.632,3.94,3.94,0,0,1-2.2,1.078,7.142,7.142,0,0,1-3.925-.216,4.139,4.139,0,0,1-2.847-3.192,8.607,8.607,0,0,1,1.078-6.254,5.657,5.657,0,0,1,4.96-2.631Zm-.647,2.89a1.456,1.456,0,0,0-1.294.776,5.3,5.3,0,0,0-.6,1.812c-.043.216.043.216.216.216.259-.044.474-.044.733-.087a2.881,2.881,0,0,0,1.725-.776,1.184,1.184,0,0,0,.216-1.337A1.052,1.052,0,0,0,127.736,15.609Z" fill="none" stroke="#459bd2" stroke-linecap="round" stroke-linejoin="round" stroke-width="0.863"/>
    <path id="Path_62" data-name="Path 62" d="M87.408,8.148a19.031,19.031,0,0,1,3.838.043A5.046,5.046,0,0,1,94.438,9.7,4.9,4.9,0,0,1,95.6,12.288a14.242,14.242,0,0,1-.561,6.988,6.566,6.566,0,0,1-6.125,4.615,15.283,15.283,0,0,1-3.968-.129,3.692,3.692,0,0,1-.647-.173,1.688,1.688,0,0,1-1.164-1.725c0-1.294.129-2.588.215-3.882.216-3.063.561-6.125.647-9.231,0-.431.086-.517.518-.517C85.424,8.234,86.372,8.191,87.408,8.148Zm4.356,6.642a5.739,5.739,0,0,0-.259-1.9,1.958,1.958,0,0,0-1.553-1.38,8,8,0,0,0-2.027,0c-.215,0-.3.086-.3.345-.129,2.76-.345,5.564-.56,8.325,0,.258.043.3.258.3h.216A3.325,3.325,0,0,0,91.419,17.9,11.01,11.01,0,0,0,91.764,14.79Z" fill="none" stroke="#459bd2" stroke-linecap="round" stroke-linejoin="round" stroke-width="0.863"/>
    <path id="Path_63" data-name="Path 63" d="M40.307,15.609c.043.086.13.086.216.129a3,3,0,0,1,1.941,2.631,5.592,5.592,0,0,1-.086,1.9,4.105,4.105,0,0,1-2.847,3.062,12.065,12.065,0,0,1-6.427.346,2.022,2.022,0,0,1-1.811-2.286c0-1.553.215-3.106.3-4.659.173-2.631.475-5.262.561-7.893,0-.561.043-.6.6-.6A36.739,36.739,0,0,1,37.633,8.1a8.263,8.263,0,0,1,2.674.6,3.318,3.318,0,0,1,2.2,3.321,5.142,5.142,0,0,1-.3,1.811A3.1,3.1,0,0,1,40.307,15.609Zm-3.623,5.478a1.85,1.85,0,0,0,1.984-1.165,2.557,2.557,0,0,0,.043-1.51,1.487,1.487,0,0,0-1.121-1.121,4.477,4.477,0,0,0-1.855,0c-.216.043-.259.129-.259.3-.043.733-.129,1.51-.129,2.243,0,.345-.259.776.086,1.035a2.31,2.31,0,0,0,1.079.216Zm.3-9.964a6.457,6.457,0,0,0-.906.086c-.129,0-.215.043-.215.216-.044.863-.087,1.725-.13,2.631,0,.129.043.216.173.216a3.879,3.879,0,0,0,1.984,0,1.443,1.443,0,0,0,1.078-1.467A1.425,1.425,0,0,0,37.935,11.3,1.5,1.5,0,0,0,36.986,11.123Z" fill="none" stroke="#459bd2" stroke-linecap="round" stroke-linejoin="round" stroke-width="0.863"/>
    <path id="Path_64" data-name="Path 64" d="M118.205,13.065a3.208,3.208,0,0,0,.043-.906c0-.3.129-.475.474-.431.475.043.949,0,1.423.043A1.566,1.566,0,0,1,121.7,13.41a17.615,17.615,0,0,1-.086,3.019c-.129,2.2-.3,4.4-.647,6.6a10.562,10.562,0,0,1-.345,1.6,4.153,4.153,0,0,1-2.372,2.718,8.58,8.58,0,0,1-6.211.172,2.8,2.8,0,0,1-1.165-.733,1.662,1.662,0,0,1-.561-1.812,1.787,1.787,0,0,1,1.553-1.121.847.847,0,0,1,.992.431,2.367,2.367,0,0,0,2.5.949,2.106,2.106,0,0,0,1.811-1.682,6.045,6.045,0,0,0,.259-2.157c-.129,0-.129.087-.172.173a3.459,3.459,0,0,1-3.278,1.553,3.548,3.548,0,0,1-3.624-3.235,8.913,8.913,0,0,1,.734-5.78,4.661,4.661,0,0,1,5.262-2.416,2.309,2.309,0,0,1,1.682,1.338c0,.043.043.086.086.129C118.161,13.065,118.205,13.065,118.205,13.065Zm-.173,3.666a4.141,4.141,0,0,0-.216-1.38,1.345,1.345,0,0,0-1.294-.949,1.857,1.857,0,0,0-1.854,1.078,5.568,5.568,0,0,0-.432,3.537,1.242,1.242,0,0,0,.949,1.035,2.069,2.069,0,0,0,2.416-1.078A4.642,4.642,0,0,0,118.032,16.731Z" fill="none" stroke="#459bd2" stroke-linecap="round" stroke-linejoin="round" stroke-width="0.863"/>
    <path id="Path_65" data-name="Path 65" d="M76.754,21.346a3.961,3.961,0,0,1-1.467,1.337,4.336,4.336,0,0,1-3.925-.086,3.241,3.241,0,0,1-1.552-2.761,17.521,17.521,0,0,1,.086-3.364c.086-1.294.216-2.588.3-3.882.043-.647.216-.819.863-.819a9.4,9.4,0,0,1,1.078.043,1.569,1.569,0,0,1,1.639,1.811c0,.949-.13,1.9-.216,2.8A10.959,10.959,0,0,0,73.39,18.8a1.381,1.381,0,0,0,2.286,1.035A3.423,3.423,0,0,0,76.8,18.154a12.968,12.968,0,0,0,.475-3.148c.086-.906.129-1.769.215-2.675.043-.474.173-.6.647-.6a5.255,5.255,0,0,1,1.639.13,1.537,1.537,0,0,1,1.251,1.6c0,1.6-.172,3.148-.3,4.744-.086,1.682-.259,3.322-.388,5a4.784,4.784,0,0,1-4.443,4.7,9.705,9.705,0,0,1-4.442-.388,4.336,4.336,0,0,1-1.553-.906,1.488,1.488,0,0,1,.561-2.588,2.141,2.141,0,0,1,.56-.129c.691-.13.734-.13,1.122.474a1.963,1.963,0,0,0,1.725.863,2.221,2.221,0,0,0,2.674-1.855A6.356,6.356,0,0,0,76.754,21.346Z" fill="none" stroke="#459bd2" stroke-linecap="round" stroke-linejoin="round" stroke-width="0.863"/>
    <path id="Path_66" data-name="Path 66" d="M60.665,13.323a1.211,1.211,0,0,1,.173-.215,3.4,3.4,0,0,1,3.58-1.553,3.489,3.489,0,0,1,3.192,2.8,9.429,9.429,0,0,1-.475,6.341,5.3,5.3,0,0,1-4.615,3.192,7.922,7.922,0,0,1-2.674-.13,3.816,3.816,0,0,1-3.192-3.58,29.909,29.909,0,0,1,.086-3.925c.173-2.76.475-5.478.561-8.238,0-.431.043-.474.518-.474a9.256,9.256,0,0,1,1.552.043,1.636,1.636,0,0,1,1.51,1.768c0,1.208-.129,2.372-.216,3.58Zm-.474,4.788a5.708,5.708,0,0,0,.259,1.941,1.38,1.38,0,0,0,1.509.992,1.722,1.722,0,0,0,1.51-.992,6.337,6.337,0,0,0,.475-4.529,1.309,1.309,0,0,0-1.467-1.078,1.812,1.812,0,0,0-1.768,1.207A5.359,5.359,0,0,0,60.191,18.111Z" fill="none" stroke="#459bd2" stroke-linecap="round" stroke-linejoin="round" stroke-width="0.863"/>
    <path id="Path_67" data-name="Path 67" d="M50.27,22.122a5.007,5.007,0,0,1-.647.69,4.245,4.245,0,0,1-4.572.819A2.588,2.588,0,0,1,43.5,20.914a3.694,3.694,0,0,1,2.675-3.364,11.152,11.152,0,0,1,3.968-.733c.259,0,.388-.087.388-.345a4.537,4.537,0,0,0-.043-1.079.96.96,0,0,0-.82-.819,1.465,1.465,0,0,0-1.941,1.121c-.043.086-.043.173-.086.259-.172.647-.216.69-.863.647-.215,0-.431-.043-.647-.043a1.555,1.555,0,0,1-1.423-2.027,3.114,3.114,0,0,1,1.467-2.114,5.8,5.8,0,0,1,2.544-.733,8.149,8.149,0,0,1,3.063.215,3.232,3.232,0,0,1,2.5,3.149,26.533,26.533,0,0,1-.216,3.192c-.043.518-.13,1.078-.13,1.6a.982.982,0,0,0,.863,1.121c.388.087.431.259.431.6a2.488,2.488,0,0,1-1.854,2.416,2.994,2.994,0,0,1-1.51,0,1.943,1.943,0,0,1-1.423-1.338A3.513,3.513,0,0,1,50.27,22.122Zm-.388-3.537a4.767,4.767,0,0,0-1.553.345,1.364,1.364,0,0,0-.819.647.91.91,0,0,0-.043,1.035.875.875,0,0,0,.862.432,1.771,1.771,0,0,0,1.208-.475,2.552,2.552,0,0,0,.776-1.6C50.356,18.585,50.356,18.542,49.882,18.585Z" fill="none" stroke="#459bd2" stroke-linecap="round" stroke-linejoin="round" stroke-width="0.863"/>
    <path id="Path_68" data-name="Path 68" d="M97.156,18.585a8.495,8.495,0,0,1,.56-3.364,5.406,5.406,0,0,1,4.357-3.58,8.591,8.591,0,0,1,3.321,0,3.955,3.955,0,0,1,3.364,3.666,9.126,9.126,0,0,1-.69,5.133,5.651,5.651,0,0,1-4.831,3.407,8.144,8.144,0,0,1-2.5-.086,4.118,4.118,0,0,1-3.451-3.537A7.407,7.407,0,0,1,97.156,18.585Zm7.936-1.639a5.234,5.234,0,0,0-.173-1.466,1.476,1.476,0,0,0-1.38-1.036,2.105,2.105,0,0,0-2.243,1.381,6.537,6.537,0,0,0-.431,2.588,4.173,4.173,0,0,0,.345,1.768,1.464,1.464,0,0,0,1.38.863,2.055,2.055,0,0,0,1.9-1.338A7.084,7.084,0,0,0,105.092,16.946Z" fill="none" stroke="#459bd2" stroke-linecap="round" stroke-linejoin="round" stroke-width="0.863"/>
    <path id="Path_69" data-name="Path 69" d="M129.807,11.512a6.333,6.333,0,0,1,2.07.259,2.935,2.935,0,0,1,2.114,3.321,3.484,3.484,0,0,1-2.071,2.933,10.239,10.239,0,0,1-3.795.949c-.259,0-.475.043-.733.043-.173,0-.259.043-.216.259a2.011,2.011,0,0,0,2.545,1.9,1.79,1.79,0,0,0,1.035-.734c.345-.474.517-.517,1.078-.345a1.556,1.556,0,0,1,.69,2.631,3.942,3.942,0,0,1-2.2,1.079,7.142,7.142,0,0,1-3.925-.216,4.14,4.14,0,0,1-2.847-3.192,8.607,8.607,0,0,1,1.078-6.254,5.657,5.657,0,0,1,4.96-2.631Zm-.647,2.933a1.456,1.456,0,0,0-1.294.776,5.3,5.3,0,0,0-.6,1.812c-.043.216.043.216.216.216.259-.044.474-.044.733-.087a2.881,2.881,0,0,0,1.725-.776,1.184,1.184,0,0,0,.216-1.337A1.026,1.026,0,0,0,129.16,14.445Z" fill="none" stroke="#459bd2" stroke-linecap="round" stroke-linejoin="round" stroke-width="0.863"/>
    <path id="Path_70" data-name="Path 70" d="M86.028,9.312a19.031,19.031,0,0,1,3.838.043,5.046,5.046,0,0,1,3.192,1.509,4.9,4.9,0,0,1,1.165,2.588,14.242,14.242,0,0,1-.561,6.988,6.566,6.566,0,0,1-6.125,4.615,15.283,15.283,0,0,1-3.968-.129,3.692,3.692,0,0,1-.647-.173,1.688,1.688,0,0,1-1.164-1.725c0-1.294.129-2.588.215-3.882.216-3.063.561-6.125.647-9.231,0-.431.086-.517.518-.517a22.485,22.485,0,0,0,2.89-.086m4.356,6.642a5.739,5.739,0,0,0-.259-1.9,1.958,1.958,0,0,0-1.553-1.38,8,8,0,0,0-2.027,0c-.215,0-.3.086-.3.345-.129,2.76-.345,5.564-.56,8.325,0,.258.043.3.258.3h.216a3.325,3.325,0,0,0,3.882-2.587,10.82,10.82,0,0,0,.345-3.106" fill="#459bd2"/>
    <path id="Path_71" data-name="Path 71" d="M86.028,9.312a19.031,19.031,0,0,1,3.838.043,5.046,5.046,0,0,1,3.192,1.509,4.9,4.9,0,0,1,1.165,2.588,14.242,14.242,0,0,1-.561,6.988,6.566,6.566,0,0,1-6.125,4.615,15.283,15.283,0,0,1-3.968-.129,3.692,3.692,0,0,1-.647-.173,1.688,1.688,0,0,1-1.164-1.725c0-1.294.129-2.588.215-3.882.216-3.063.561-6.125.647-9.231,0-.431.086-.517.518-.517A22.485,22.485,0,0,0,86.028,9.312Zm4.356,6.642a5.739,5.739,0,0,0-.259-1.9,1.958,1.958,0,0,0-1.553-1.38,8,8,0,0,0-2.027,0c-.215,0-.3.086-.3.345-.129,2.76-.345,5.564-.56,8.325,0,.258.043.3.258.3h.216a3.325,3.325,0,0,0,3.882-2.587A10.82,10.82,0,0,0,90.384,15.954Z" fill="none" stroke="#459bd2" stroke-miterlimit="10" stroke-width="0.431"/>
    <path id="Path_72" data-name="Path 72" d="M38.926,16.817c.043.086.13.086.216.129a3,3,0,0,1,1.941,2.631,5.592,5.592,0,0,1-.086,1.9,4.107,4.107,0,0,1-2.847,3.063,12.075,12.075,0,0,1-6.427.345A2.022,2.022,0,0,1,29.912,22.6c0-1.553.215-3.106.3-4.659.172-2.631.474-5.262.56-7.893,0-.561.043-.6.6-.6a36.739,36.739,0,0,1,4.874-.129,8.29,8.29,0,0,1,2.674.6,3.319,3.319,0,0,1,2.2,3.321,5.142,5.142,0,0,1-.3,1.811,3.218,3.218,0,0,1-1.9,1.769M35.26,22.3a1.849,1.849,0,0,0,1.984-1.165,2.554,2.554,0,0,0,.043-1.509A1.488,1.488,0,0,0,36.166,18.5a4.494,4.494,0,0,0-1.855,0c-.216.043-.259.129-.259.3-.043.733-.129,1.51-.129,2.243,0,.345-.259.776.086,1.035a2.3,2.3,0,0,0,1.079.216h.172m.3-10.007a6.457,6.457,0,0,0-.906.086c-.129,0-.215.043-.215.216-.044.863-.087,1.725-.13,2.631,0,.129.043.216.173.216a3.879,3.879,0,0,0,1.984,0,1.443,1.443,0,0,0,1.078-1.467,1.425,1.425,0,0,0-1.035-1.509,2.449,2.449,0,0,0-.949-.173" fill="#459bd2"/>
    <path id="Path_73" data-name="Path 73" d="M38.926,16.817c.043.086.13.086.216.129a3,3,0,0,1,1.941,2.631,5.592,5.592,0,0,1-.086,1.9,4.107,4.107,0,0,1-2.847,3.063,12.075,12.075,0,0,1-6.427.345A2.022,2.022,0,0,1,29.912,22.6c0-1.553.215-3.106.3-4.659.172-2.631.474-5.262.56-7.893,0-.561.043-.6.6-.6a36.739,36.739,0,0,1,4.874-.129,8.29,8.29,0,0,1,2.674.6,3.319,3.319,0,0,1,2.2,3.321,5.142,5.142,0,0,1-.3,1.811A3.218,3.218,0,0,1,38.926,16.817ZM35.26,22.3a1.849,1.849,0,0,0,1.984-1.165,2.554,2.554,0,0,0,.043-1.509A1.488,1.488,0,0,0,36.166,18.5a4.494,4.494,0,0,0-1.855,0c-.216.043-.259.129-.259.3-.043.733-.129,1.51-.129,2.243,0,.345-.259.776.086,1.035a2.3,2.3,0,0,0,1.079.216Zm.3-10.007a6.457,6.457,0,0,0-.906.086c-.129,0-.215.043-.215.216-.044.863-.087,1.725-.13,2.631,0,.129.043.216.173.216a3.879,3.879,0,0,0,1.984,0,1.443,1.443,0,0,0,1.078-1.467,1.425,1.425,0,0,0-1.035-1.509A2.449,2.449,0,0,0,35.562,12.288Z" fill="none" stroke="#459bd2" stroke-miterlimit="10" stroke-width="0.431"/>
    <path id="Path_74" data-name="Path 74" d="M116.824,14.272a3.208,3.208,0,0,0,.043-.906c0-.3.129-.474.474-.431.475.043.949,0,1.424.043a1.566,1.566,0,0,1,1.552,1.639,17.616,17.616,0,0,1-.086,3.019c-.129,2.2-.3,4.4-.647,6.6a10.44,10.44,0,0,1-.345,1.6,4.151,4.151,0,0,1-2.372,2.718,8.58,8.58,0,0,1-6.211.172,2.8,2.8,0,0,1-1.165-.733,1.663,1.663,0,0,1-.561-1.812,1.787,1.787,0,0,1,1.553-1.121.846.846,0,0,1,.992.431,2.367,2.367,0,0,0,2.5.949,2.106,2.106,0,0,0,1.811-1.682,6.045,6.045,0,0,0,.259-2.157c-.129,0-.129.087-.172.173a3.459,3.459,0,0,1-3.278,1.553,3.547,3.547,0,0,1-3.623-3.235,8.912,8.912,0,0,1,.733-5.78,4.659,4.659,0,0,1,5.262-2.415,2.306,2.306,0,0,1,1.682,1.337c0,.043.043.086.086.129.044-.086.044-.086.087-.086m-.216,3.666a4.141,4.141,0,0,0-.216-1.38,1.345,1.345,0,0,0-1.294-.949,1.857,1.857,0,0,0-1.854,1.078,5.568,5.568,0,0,0-.432,3.537,1.242,1.242,0,0,0,.949,1.035,2.069,2.069,0,0,0,2.416-1.078,4.642,4.642,0,0,0,.431-2.243" fill="#459bd2"/>
    <path id="Path_75" data-name="Path 75" d="M116.824,14.272a3.208,3.208,0,0,0,.043-.906c0-.3.129-.474.474-.431.475.043.949,0,1.424.043a1.566,1.566,0,0,1,1.552,1.639,17.616,17.616,0,0,1-.086,3.019c-.129,2.2-.3,4.4-.647,6.6a10.44,10.44,0,0,1-.345,1.6,4.151,4.151,0,0,1-2.372,2.718,8.58,8.58,0,0,1-6.211.172,2.8,2.8,0,0,1-1.165-.733,1.663,1.663,0,0,1-.561-1.812,1.787,1.787,0,0,1,1.553-1.121.846.846,0,0,1,.992.431,2.367,2.367,0,0,0,2.5.949,2.106,2.106,0,0,0,1.811-1.682,6.045,6.045,0,0,0,.259-2.157c-.129,0-.129.087-.172.173a3.459,3.459,0,0,1-3.278,1.553,3.547,3.547,0,0,1-3.623-3.235,8.912,8.912,0,0,1,.733-5.78,4.659,4.659,0,0,1,5.262-2.415,2.306,2.306,0,0,1,1.682,1.337c0,.043.043.086.086.129C116.781,14.272,116.781,14.272,116.824,14.272Zm-.216,3.666a4.141,4.141,0,0,0-.216-1.38,1.345,1.345,0,0,0-1.294-.949,1.857,1.857,0,0,0-1.854,1.078,5.568,5.568,0,0,0-.432,3.537,1.242,1.242,0,0,0,.949,1.035,2.069,2.069,0,0,0,2.416-1.078A4.642,4.642,0,0,0,116.608,17.938Z" fill="none" stroke="#459bd2" stroke-miterlimit="10" stroke-width="0.431"/>
    <path id="Path_76" data-name="Path 76" d="M75.33,22.554a3.961,3.961,0,0,1-1.467,1.337,4.336,4.336,0,0,1-3.925-.086,3.241,3.241,0,0,1-1.552-2.761,17.521,17.521,0,0,1,.086-3.364c.086-1.294.216-2.588.3-3.882.043-.647.216-.819.863-.819a9.4,9.4,0,0,1,1.078.043,1.569,1.569,0,0,1,1.639,1.811c0,.949-.13,1.9-.216,2.8a10.958,10.958,0,0,0-.172,2.372,1.381,1.381,0,0,0,2.286,1.035,3.424,3.424,0,0,0,1.121-1.682,12.967,12.967,0,0,0,.475-3.148c.086-.906.129-1.769.215-2.675.043-.474.173-.6.647-.6a5.255,5.255,0,0,1,1.639.13,1.537,1.537,0,0,1,1.251,1.6c0,1.6-.172,3.148-.3,4.744-.086,1.682-.259,3.322-.388,5a4.784,4.784,0,0,1-4.443,4.7,9.705,9.705,0,0,1-4.442-.388,4.336,4.336,0,0,1-1.553-.906,1.488,1.488,0,0,1,.561-2.588,2.141,2.141,0,0,1,.56-.129c.691-.13.734-.13,1.122.474a1.963,1.963,0,0,0,1.725.863,2.221,2.221,0,0,0,2.674-1.855,5.426,5.426,0,0,0,.216-2.027" fill="#459bd2"/>
    <path id="Path_77" data-name="Path 77" d="M75.33,22.554a3.961,3.961,0,0,1-1.467,1.337,4.336,4.336,0,0,1-3.925-.086,3.241,3.241,0,0,1-1.552-2.761,17.521,17.521,0,0,1,.086-3.364c.086-1.294.216-2.588.3-3.882.043-.647.216-.819.863-.819a9.4,9.4,0,0,1,1.078.043,1.569,1.569,0,0,1,1.639,1.811c0,.949-.13,1.9-.216,2.8a10.958,10.958,0,0,0-.172,2.372,1.381,1.381,0,0,0,2.286,1.035,3.424,3.424,0,0,0,1.121-1.682,12.967,12.967,0,0,0,.475-3.148c.086-.906.129-1.769.215-2.675.043-.474.173-.6.647-.6a5.255,5.255,0,0,1,1.639.13,1.537,1.537,0,0,1,1.251,1.6c0,1.6-.172,3.148-.3,4.744-.086,1.682-.259,3.322-.388,5a4.784,4.784,0,0,1-4.443,4.7,9.705,9.705,0,0,1-4.442-.388,4.336,4.336,0,0,1-1.553-.906,1.488,1.488,0,0,1,.561-2.588,2.141,2.141,0,0,1,.56-.129c.691-.13.734-.13,1.122.474a1.963,1.963,0,0,0,1.725.863,2.221,2.221,0,0,0,2.674-1.855A5.426,5.426,0,0,0,75.33,22.554Z" fill="none" stroke="#459bd2" stroke-miterlimit="10" stroke-width="0.431"/>
    <path id="Path_78" data-name="Path 78" d="M59.242,14.53a1.212,1.212,0,0,1,.173-.215,3.4,3.4,0,0,1,3.58-1.553,3.49,3.49,0,0,1,3.192,2.8,9.432,9.432,0,0,1-.475,6.34A5.3,5.3,0,0,1,61.1,25.1a7.922,7.922,0,0,1-2.674-.13,3.816,3.816,0,0,1-3.192-3.58,29.913,29.913,0,0,1,.086-3.925c.173-2.76.475-5.477.561-8.238,0-.431.043-.474.518-.474a9.363,9.363,0,0,1,1.552.043,1.636,1.636,0,0,1,1.51,1.768c0,1.208-.129,2.373-.216,3.58a.583.583,0,0,1,0,.388m-.474,4.745a5.708,5.708,0,0,0,.259,1.941,1.38,1.38,0,0,0,1.509.992,1.722,1.722,0,0,0,1.51-.992,6.337,6.337,0,0,0,.475-4.529,1.309,1.309,0,0,0-1.467-1.078,1.812,1.812,0,0,0-1.768,1.207,6.123,6.123,0,0,0-.518,2.459" fill="#459bd2"/>
    <path id="Path_79" data-name="Path 79" d="M59.242,14.53a1.212,1.212,0,0,1,.173-.215,3.4,3.4,0,0,1,3.58-1.553,3.49,3.49,0,0,1,3.192,2.8,9.432,9.432,0,0,1-.475,6.34A5.3,5.3,0,0,1,61.1,25.1a7.922,7.922,0,0,1-2.674-.13,3.816,3.816,0,0,1-3.192-3.58,29.913,29.913,0,0,1,.086-3.925c.173-2.76.475-5.477.561-8.238,0-.431.043-.474.518-.474a9.363,9.363,0,0,1,1.552.043,1.636,1.636,0,0,1,1.51,1.768c0,1.208-.129,2.373-.216,3.58A.583.583,0,0,1,59.242,14.53Zm-.474,4.745a5.708,5.708,0,0,0,.259,1.941,1.38,1.38,0,0,0,1.509.992,1.722,1.722,0,0,0,1.51-.992,6.337,6.337,0,0,0,.475-4.529,1.309,1.309,0,0,0-1.467-1.078,1.812,1.812,0,0,0-1.768,1.207A6.123,6.123,0,0,0,58.768,19.275Z" fill="none" stroke="#459bd2" stroke-miterlimit="10" stroke-width="0.431"/>
    <path id="Path_80" data-name="Path 80" d="M48.89,23.287a5.007,5.007,0,0,1-.647.69,4.245,4.245,0,0,1-4.572.819,2.588,2.588,0,0,1-1.553-2.717,3.694,3.694,0,0,1,2.675-3.364,11.152,11.152,0,0,1,3.968-.733c.259,0,.388-.087.388-.345a4.537,4.537,0,0,0-.043-1.079.96.96,0,0,0-.82-.819,1.465,1.465,0,0,0-1.941,1.121c-.043.086-.043.173-.086.259-.172.647-.216.69-.863.647-.215,0-.431-.043-.647-.043A1.555,1.555,0,0,1,43.326,15.7a3.114,3.114,0,0,1,1.467-2.114,5.8,5.8,0,0,1,2.544-.733,8.149,8.149,0,0,1,3.063.215,3.232,3.232,0,0,1,2.5,3.149,26.533,26.533,0,0,1-.216,3.192c-.043.518-.13,1.078-.13,1.6a.982.982,0,0,0,.863,1.121c.388.087.431.259.431.6A2.488,2.488,0,0,1,52,25.142a2.994,2.994,0,0,1-1.51,0A1.943,1.943,0,0,1,49.063,23.8a1.439,1.439,0,0,1-.173-.517M48.5,19.75a4.767,4.767,0,0,0-1.553.345,1.364,1.364,0,0,0-.819.647.91.91,0,0,0-.043,1.035.875.875,0,0,0,.862.432,1.771,1.771,0,0,0,1.208-.475,2.552,2.552,0,0,0,.776-1.6c.043-.388,0-.388-.431-.388" fill="#459bd2"/>
    <path id="Path_81" data-name="Path 81" d="M48.89,23.287a5.007,5.007,0,0,1-.647.69,4.245,4.245,0,0,1-4.572.819,2.588,2.588,0,0,1-1.553-2.717,3.694,3.694,0,0,1,2.675-3.364,11.152,11.152,0,0,1,3.968-.733c.259,0,.388-.087.388-.345a4.537,4.537,0,0,0-.043-1.079.96.96,0,0,0-.82-.819,1.465,1.465,0,0,0-1.941,1.121c-.043.086-.043.173-.086.259-.172.647-.216.69-.863.647-.215,0-.431-.043-.647-.043A1.555,1.555,0,0,1,43.326,15.7a3.114,3.114,0,0,1,1.467-2.114,5.8,5.8,0,0,1,2.544-.733,8.149,8.149,0,0,1,3.063.215,3.232,3.232,0,0,1,2.5,3.149,26.533,26.533,0,0,1-.216,3.192c-.043.518-.13,1.078-.13,1.6a.982.982,0,0,0,.863,1.121c.388.087.431.259.431.6A2.488,2.488,0,0,1,52,25.142a2.994,2.994,0,0,1-1.51,0A1.943,1.943,0,0,1,49.063,23.8,1.439,1.439,0,0,1,48.89,23.287ZM48.5,19.75a4.767,4.767,0,0,0-1.553.345,1.364,1.364,0,0,0-.819.647.91.91,0,0,0-.043,1.035.875.875,0,0,0,.862.432,1.771,1.771,0,0,0,1.208-.475,2.552,2.552,0,0,0,.776-1.6C48.976,19.75,48.933,19.75,48.5,19.75Z" fill="none" stroke="#459bd2" stroke-miterlimit="10" stroke-width="0.431"/>
    <path id="Path_82" data-name="Path 82" d="M95.732,19.75a8.495,8.495,0,0,1,.561-3.364,5.406,5.406,0,0,1,4.357-3.58,8.591,8.591,0,0,1,3.321,0,3.955,3.955,0,0,1,3.364,3.666,9.126,9.126,0,0,1-.69,5.133,5.651,5.651,0,0,1-4.831,3.407,8.152,8.152,0,0,1-2.5-.086,4.118,4.118,0,0,1-3.45-3.537,10.527,10.527,0,0,1-.13-1.639m7.98-1.639a5.246,5.246,0,0,0-.173-1.467,1.476,1.476,0,0,0-1.38-1.035,2.105,2.105,0,0,0-2.243,1.381,6.537,6.537,0,0,0-.431,2.588,4.173,4.173,0,0,0,.345,1.768,1.464,1.464,0,0,0,1.38.863,2.055,2.055,0,0,0,1.9-1.338,7.084,7.084,0,0,0,.6-2.76" fill="#459bd2"/>
    <path id="Path_83" data-name="Path 83" d="M95.732,19.75a8.495,8.495,0,0,1,.561-3.364,5.406,5.406,0,0,1,4.357-3.58,8.591,8.591,0,0,1,3.321,0,3.955,3.955,0,0,1,3.364,3.666,9.126,9.126,0,0,1-.69,5.133,5.651,5.651,0,0,1-4.831,3.407,8.152,8.152,0,0,1-2.5-.086,4.118,4.118,0,0,1-3.45-3.537A10.527,10.527,0,0,1,95.732,19.75Zm7.98-1.639a5.246,5.246,0,0,0-.173-1.467,1.476,1.476,0,0,0-1.38-1.035,2.105,2.105,0,0,0-2.243,1.381,6.537,6.537,0,0,0-.431,2.588,4.173,4.173,0,0,0,.345,1.768,1.464,1.464,0,0,0,1.38.863,2.055,2.055,0,0,0,1.9-1.338A7.084,7.084,0,0,0,103.712,18.111Z" fill="none" stroke="#459bd2" stroke-miterlimit="10" stroke-width="0.431"/>
    <path id="Path_84" data-name="Path 84" d="M128.383,12.719a6.333,6.333,0,0,1,2.07.259,2.935,2.935,0,0,1,2.114,3.321,3.484,3.484,0,0,1-2.071,2.933,10.239,10.239,0,0,1-3.8.949c-.259,0-.475.043-.733.043-.173,0-.259.043-.216.259a2.011,2.011,0,0,0,2.545,1.9,1.784,1.784,0,0,0,1.035-.733c.345-.475.517-.518,1.078-.346a1.556,1.556,0,0,1,.69,2.632,3.94,3.94,0,0,1-2.2,1.078,7.142,7.142,0,0,1-3.925-.216,4.139,4.139,0,0,1-2.847-3.192,8.607,8.607,0,0,1,1.078-6.254,5.657,5.657,0,0,1,4.96-2.631h.216m-.647,2.89a1.456,1.456,0,0,0-1.294.776,5.3,5.3,0,0,0-.6,1.812c-.043.216.043.216.216.216.259-.044.474-.044.733-.087a2.881,2.881,0,0,0,1.725-.776,1.184,1.184,0,0,0,.216-1.337,1.052,1.052,0,0,0-.992-.6" fill="#459bd2"/>
    <path id="Path_85" data-name="Path 85" d="M128.383,12.719a6.333,6.333,0,0,1,2.07.259,2.935,2.935,0,0,1,2.114,3.321,3.484,3.484,0,0,1-2.071,2.933,10.239,10.239,0,0,1-3.8.949c-.259,0-.475.043-.733.043-.173,0-.259.043-.216.259a2.011,2.011,0,0,0,2.545,1.9,1.784,1.784,0,0,0,1.035-.733c.345-.475.517-.518,1.078-.346a1.556,1.556,0,0,1,.69,2.632,3.94,3.94,0,0,1-2.2,1.078,7.142,7.142,0,0,1-3.925-.216,4.139,4.139,0,0,1-2.847-3.192,8.607,8.607,0,0,1,1.078-6.254,5.657,5.657,0,0,1,4.96-2.631Zm-.647,2.89a1.456,1.456,0,0,0-1.294.776,5.3,5.3,0,0,0-.6,1.812c-.043.216.043.216.216.216.259-.044.474-.044.733-.087a2.881,2.881,0,0,0,1.725-.776,1.184,1.184,0,0,0,.216-1.337A1.052,1.052,0,0,0,127.736,15.609Z" fill="none" stroke="#459bd2" stroke-miterlimit="10" stroke-width="0.431"/>
    <path id="Path_86" data-name="Path 86" d="M87.408,8.148a19.031,19.031,0,0,1,3.838.043A5.046,5.046,0,0,1,94.438,9.7,4.9,4.9,0,0,1,95.6,12.288a14.242,14.242,0,0,1-.561,6.988,6.566,6.566,0,0,1-6.125,4.615,15.283,15.283,0,0,1-3.968-.129,3.692,3.692,0,0,1-.647-.173,1.688,1.688,0,0,1-1.164-1.725c0-1.294.129-2.588.215-3.882.216-3.063.561-6.125.647-9.231,0-.431.086-.517.518-.517.906,0,1.854-.043,2.89-.086m4.356,6.642a5.739,5.739,0,0,0-.259-1.9,1.958,1.958,0,0,0-1.553-1.38,8,8,0,0,0-2.027,0c-.215,0-.3.086-.3.345-.129,2.76-.345,5.564-.56,8.325,0,.258.043.3.258.3h.216A3.325,3.325,0,0,0,91.419,17.9a11.01,11.01,0,0,0,.345-3.106" fill="#fff"/>
    <path id="Path_87" data-name="Path 87" d="M40.307,15.609c.043.086.13.086.216.129a3,3,0,0,1,1.941,2.631,5.592,5.592,0,0,1-.086,1.9,4.105,4.105,0,0,1-2.847,3.062,12.065,12.065,0,0,1-6.427.346,2.022,2.022,0,0,1-1.811-2.286c0-1.553.215-3.106.3-4.659.173-2.631.475-5.262.561-7.893,0-.561.043-.6.6-.6A36.739,36.739,0,0,1,37.633,8.1a8.263,8.263,0,0,1,2.674.6,3.318,3.318,0,0,1,2.2,3.321,5.142,5.142,0,0,1-.3,1.811,3.1,3.1,0,0,1-1.9,1.769m-3.623,5.478a1.85,1.85,0,0,0,1.984-1.165,2.557,2.557,0,0,0,.043-1.51,1.487,1.487,0,0,0-1.121-1.121,4.477,4.477,0,0,0-1.855,0c-.216.043-.259.129-.259.3-.043.733-.129,1.51-.129,2.243,0,.345-.259.776.086,1.035a2.31,2.31,0,0,0,1.079.216Zm.3-9.964a6.457,6.457,0,0,0-.906.086c-.129,0-.215.043-.215.216-.044.863-.087,1.725-.13,2.631,0,.129.043.216.173.216a3.879,3.879,0,0,0,1.984,0,1.443,1.443,0,0,0,1.078-1.467A1.425,1.425,0,0,0,37.935,11.3a1.5,1.5,0,0,0-.949-.173" fill="#fff"/>
    <path id="Path_88" data-name="Path 88" d="M118.205,13.065a3.208,3.208,0,0,0,.043-.906c0-.3.129-.475.474-.431.475.043.949,0,1.423.043A1.566,1.566,0,0,1,121.7,13.41a17.615,17.615,0,0,1-.086,3.019c-.129,2.2-.3,4.4-.647,6.6a10.562,10.562,0,0,1-.345,1.6,4.153,4.153,0,0,1-2.372,2.718,8.58,8.58,0,0,1-6.211.172,2.8,2.8,0,0,1-1.165-.733,1.662,1.662,0,0,1-.561-1.812,1.787,1.787,0,0,1,1.553-1.121.847.847,0,0,1,.992.431,2.367,2.367,0,0,0,2.5.949,2.106,2.106,0,0,0,1.811-1.682,6.045,6.045,0,0,0,.259-2.157c-.129,0-.129.087-.172.173a3.459,3.459,0,0,1-3.278,1.553,3.548,3.548,0,0,1-3.624-3.235,8.913,8.913,0,0,1,.734-5.78,4.661,4.661,0,0,1,5.262-2.416,2.309,2.309,0,0,1,1.682,1.338c0,.043.043.086.086.129.043-.086.087-.086.087-.086m-.173,3.666a4.141,4.141,0,0,0-.216-1.38,1.345,1.345,0,0,0-1.294-.949,1.857,1.857,0,0,0-1.854,1.078,5.568,5.568,0,0,0-.432,3.537,1.242,1.242,0,0,0,.949,1.035,2.069,2.069,0,0,0,2.416-1.078,4.642,4.642,0,0,0,.431-2.243" fill="#fff"/>
    <path id="Path_89" data-name="Path 89" d="M76.754,21.346a3.961,3.961,0,0,1-1.467,1.337,4.336,4.336,0,0,1-3.925-.086,3.241,3.241,0,0,1-1.552-2.761,17.521,17.521,0,0,1,.086-3.364c.086-1.294.216-2.588.3-3.882.043-.647.216-.819.863-.819a9.4,9.4,0,0,1,1.078.043,1.569,1.569,0,0,1,1.639,1.811c0,.949-.13,1.9-.216,2.8A10.959,10.959,0,0,0,73.39,18.8a1.381,1.381,0,0,0,2.286,1.035A3.423,3.423,0,0,0,76.8,18.154a12.968,12.968,0,0,0,.475-3.148c.086-.906.129-1.769.215-2.675.043-.474.173-.6.647-.6a5.255,5.255,0,0,1,1.639.13,1.537,1.537,0,0,1,1.251,1.6c0,1.6-.172,3.148-.3,4.744-.086,1.682-.259,3.322-.388,5a4.784,4.784,0,0,1-4.443,4.7,9.705,9.705,0,0,1-4.442-.388,4.336,4.336,0,0,1-1.553-.906,1.488,1.488,0,0,1,.561-2.588,2.141,2.141,0,0,1,.56-.129c.691-.13.734-.13,1.122.474a1.963,1.963,0,0,0,1.725.863,2.221,2.221,0,0,0,2.674-1.855,6.356,6.356,0,0,0,.216-2.027" fill="#fff"/>
    <path id="Path_90" data-name="Path 90" d="M60.665,13.323a1.211,1.211,0,0,1,.173-.215,3.4,3.4,0,0,1,3.58-1.553,3.489,3.489,0,0,1,3.192,2.8,9.429,9.429,0,0,1-.475,6.341,5.3,5.3,0,0,1-4.615,3.192,7.922,7.922,0,0,1-2.674-.13,3.816,3.816,0,0,1-3.192-3.58,29.909,29.909,0,0,1,.086-3.925c.173-2.76.475-5.478.561-8.238,0-.431.043-.474.518-.474a9.256,9.256,0,0,1,1.552.043,1.636,1.636,0,0,1,1.51,1.768c0,1.208-.129,2.372-.216,3.58Zm-.474,4.788a5.708,5.708,0,0,0,.259,1.941,1.38,1.38,0,0,0,1.509.992,1.722,1.722,0,0,0,1.51-.992,6.337,6.337,0,0,0,.475-4.529,1.309,1.309,0,0,0-1.467-1.078,1.812,1.812,0,0,0-1.768,1.207,5.359,5.359,0,0,0-.518,2.459" fill="#fff"/>
    <path id="Path_91" data-name="Path 91" d="M50.27,22.122a5.007,5.007,0,0,1-.647.69,4.245,4.245,0,0,1-4.572.819A2.588,2.588,0,0,1,43.5,20.914a3.694,3.694,0,0,1,2.675-3.364,11.152,11.152,0,0,1,3.968-.733c.259,0,.388-.087.388-.345a4.537,4.537,0,0,0-.043-1.079.96.96,0,0,0-.82-.819,1.465,1.465,0,0,0-1.941,1.121c-.043.086-.043.173-.086.259-.172.647-.216.69-.863.647-.215,0-.431-.043-.647-.043a1.555,1.555,0,0,1-1.423-2.027,3.114,3.114,0,0,1,1.467-2.114,5.8,5.8,0,0,1,2.544-.733,8.149,8.149,0,0,1,3.063.215,3.232,3.232,0,0,1,2.5,3.149,26.533,26.533,0,0,1-.216,3.192c-.043.518-.13,1.078-.13,1.6a.982.982,0,0,0,.863,1.121c.388.087.431.259.431.6a2.488,2.488,0,0,1-1.854,2.416,2.994,2.994,0,0,1-1.51,0,1.943,1.943,0,0,1-1.423-1.338,3.513,3.513,0,0,1-.173-.517m-.388-3.537a4.767,4.767,0,0,0-1.553.345,1.364,1.364,0,0,0-.819.647.91.91,0,0,0-.043,1.035.875.875,0,0,0,.862.432,1.771,1.771,0,0,0,1.208-.475,2.552,2.552,0,0,0,.776-1.6c.043-.388.043-.431-.431-.388" fill="#fff"/>
    <path id="Path_92" data-name="Path 92" d="M97.156,18.585a8.495,8.495,0,0,1,.56-3.364,5.406,5.406,0,0,1,4.357-3.58,8.591,8.591,0,0,1,3.321,0,3.955,3.955,0,0,1,3.364,3.666,9.126,9.126,0,0,1-.69,5.133,5.651,5.651,0,0,1-4.831,3.407,8.144,8.144,0,0,1-2.5-.086,4.118,4.118,0,0,1-3.451-3.537,7.407,7.407,0,0,1-.129-1.639m7.936-1.639a5.234,5.234,0,0,0-.173-1.466,1.476,1.476,0,0,0-1.38-1.036,2.105,2.105,0,0,0-2.243,1.381,6.537,6.537,0,0,0-.431,2.588,4.173,4.173,0,0,0,.345,1.768,1.464,1.464,0,0,0,1.38.863,2.055,2.055,0,0,0,1.9-1.338,7.084,7.084,0,0,0,.6-2.76" fill="#fff"/>
    <path id="Path_93" data-name="Path 93" d="M129.807,11.512a6.333,6.333,0,0,1,2.07.259,2.935,2.935,0,0,1,2.114,3.321,3.484,3.484,0,0,1-2.071,2.933,10.239,10.239,0,0,1-3.795.949c-.259,0-.475.043-.733.043-.173,0-.259.043-.216.259a2.011,2.011,0,0,0,2.545,1.9,1.79,1.79,0,0,0,1.035-.734c.345-.474.517-.517,1.078-.345a1.556,1.556,0,0,1,.69,2.631,3.942,3.942,0,0,1-2.2,1.079,7.142,7.142,0,0,1-3.925-.216,4.14,4.14,0,0,1-2.847-3.192,8.607,8.607,0,0,1,1.078-6.254,5.657,5.657,0,0,1,4.96-2.631h.216m-.647,2.933a1.456,1.456,0,0,0-1.294.776,5.3,5.3,0,0,0-.6,1.812c-.043.216.043.216.216.216.259-.044.474-.044.733-.087a2.881,2.881,0,0,0,1.725-.776,1.184,1.184,0,0,0,.216-1.337,1.026,1.026,0,0,0-.992-.6" fill="#fff"/>
  </g>
</svg>
